<svg width="24" height="43" viewBox="0 0 24 43" version="1.1" xmlns="http://www.w3.org/2000/svg" xmlns:xlink="http://www.w3.org/1999/xlink">
<title>Line 4 (Stroke)</title>
<desc>Created using Figma</desc>
<g id="Canvas" transform="translate(-3602 -4325)">
<g id="Line 4 (Stroke)">
<use xlink:href="#path0_fill" transform="matrix(-0.707107 0.707107 -0.707107 -0.707107 3644.83 4346.41)" fill="#FFFFFF"/>
</g>
</g>
<defs>
<path id="path0_fill" fill-rule="evenodd" d="M 29.2843 0C 29.8366 0 30.2843 0.447715 30.2843 1L 30.2843 28.2843L 30.2843 28.2843C 30.2843 29.3888 29.3888 30.2843 28.2843 30.2843L 1 30.2843C 0.447715 30.2843 0 29.8366 0 29.2843L 0 27.2843C 0 26.732 0.447715 26.2843 1 26.2843L 25.2843 26.2843C 25.8366 26.2843 26.2843 25.8366 26.2843 25.2843L 26.2843 1C 26.2843 0.447715 26.732 0 27.2843 0L 29.2843 0Z"/>
</defs>
</svg>
